<svg width="157" height="100" viewBox="0 0 157 100" fill="none" xmlns="http://www.w3.org/2000/svg">
<path d="M6.52532 77.5839C4.43722 77.5839 2.74064 77.0626 1.69659 76.1503C0.52203 75.1077 0 73.6741 0 71.8495V61.5537H3.65419V71.8495C3.65419 73.6741 4.56773 74.5864 6.52532 74.5864C7.43887 74.5864 8.0914 74.3257 8.61342 73.8044C9.13545 73.2831 9.39647 72.6315 9.39647 71.7192V61.5537H13.0506V71.8495C13.0506 73.6741 12.5286 75.1077 11.3541 76.1503C10.31 77.0626 8.61343 77.5839 6.52532 77.5839Z" fill="black"/>
<path d="M18.4015 65.9845V67.6787C19.054 66.3755 20.2286 65.5935 21.9251 65.5935C23.0997 65.5935 24.1438 65.9845 24.7963 66.7664C25.4488 67.5484 25.8403 68.591 25.8403 69.764V77.1926H22.5777V70.5459C22.5777 69.8943 22.4472 69.373 22.0557 69.1123C21.7946 68.7213 21.2726 68.591 20.6201 68.591C19.9675 68.591 19.4455 68.8517 19.054 69.2426C18.6625 69.764 18.4015 70.2853 18.4015 71.0672V77.4532H15.1388V65.9845H18.4015Z" fill="black"/>
<path d="M27.7974 64.4204V61.5532H31.1906V64.4204H27.7974ZM27.7974 77.3227V65.9843H31.06V77.1924H27.7974V77.3227Z" fill="black"/>
<path d="M36.2808 77.3231L32.3656 66.115H35.7588L37.0638 70.6764C37.1943 71.0674 37.3248 71.719 37.4554 72.3707C37.5859 73.0223 37.7164 73.5436 37.8469 74.0649L37.9774 74.7165C38.2384 73.1526 38.4994 71.8494 38.8909 70.8067L40.3265 66.2453H43.7197L39.8045 77.4534H36.2808V77.3231Z" fill="black"/>
<path d="M49.9839 77.5836C48.1568 77.5836 46.7212 77.0622 45.6772 75.8893C44.6331 74.7164 44.1111 73.4131 44.1111 71.5885C44.1111 69.8943 44.6331 68.4607 45.6772 67.2878C46.7212 66.1148 48.1568 65.5935 49.8534 65.5935C51.4195 65.5935 52.7245 66.1148 53.7686 67.0271C55.0736 68.2 55.5957 70.0246 55.5957 72.3705H47.3737C47.5043 73.2828 47.7653 73.9344 48.2873 74.3254C48.8093 74.8467 49.3314 74.977 50.1144 74.977C51.1584 74.977 51.811 74.586 52.2025 73.9344H55.4652C55.2042 74.977 54.5516 75.759 53.6381 76.4106C52.4635 77.3229 51.2889 77.5836 49.9839 77.5836ZM49.7229 68.0697C48.2873 68.0697 47.5043 68.8517 47.2433 70.5459H52.072C52.072 69.764 51.811 69.1123 51.4195 68.7213C51.0279 68.3304 50.5059 68.0697 49.7229 68.0697Z" fill="black"/>
<path d="M60.2949 65.9834V68.0686C60.9474 66.635 61.9915 65.853 63.427 65.853C63.8186 65.853 63.9491 65.853 64.0796 65.9834V68.8505H63.9491C63.6881 68.8505 63.4271 68.8505 63.2966 68.8505C62.383 68.8505 61.5999 69.1112 61.0779 69.6325C60.5559 70.1538 60.2949 71.0661 60.2949 72.1087V77.3218H57.0322V65.9834H60.2949Z" fill="black"/>
<path d="M70.4742 77.5824C68.9081 77.5824 67.603 77.1914 66.6895 76.5398C65.7759 75.8882 65.2539 74.9759 65.1234 73.803H68.2556C68.3861 74.8456 69.1691 75.4972 70.4742 75.4972C71.1267 75.4972 71.5182 75.3669 71.9098 75.1062C72.1708 74.8456 72.4318 74.5849 72.4318 74.1939C72.4318 73.9333 72.4318 73.803 72.3013 73.6726C72.1708 73.5423 72.0403 73.412 71.7793 73.2816C71.5182 73.1513 71.2572 73.1513 70.9962 73.021C70.7352 73.021 70.4742 72.8907 70.0827 72.8907C69.9522 72.8907 69.9522 72.8907 69.9522 72.8907H69.8217H69.6911C69.1691 72.7603 68.7776 72.7603 68.5166 72.63C68.2556 72.4997 67.8641 72.3694 67.4725 72.239C67.081 72.1087 66.82 71.8481 66.559 71.5874C66.298 71.3267 66.1675 71.0661 66.037 70.6751C65.9064 70.2841 65.7759 69.8932 65.7759 69.3718C65.7759 68.1989 66.1675 67.4169 67.081 66.7653C67.9946 66.1137 69.0386 65.853 70.4742 65.853C72.0403 65.853 73.2148 66.1137 73.9979 66.7653C74.7809 67.4169 75.3029 68.1989 75.4334 69.2415H72.3013C72.0403 68.4596 71.5182 68.0686 70.3437 68.0686C69.8217 68.0686 69.4301 68.1989 69.1691 68.3292C68.9081 68.5899 68.7776 68.8505 68.7776 69.1112C68.7776 69.5022 68.9081 69.7628 69.2996 69.8932C69.6911 70.0235 70.2132 70.1538 71.1267 70.2841C71.2572 70.2841 71.2572 70.2841 71.2572 70.2841H71.3877H71.5182C72.1708 70.4145 72.6928 70.5448 73.0843 70.6751C73.4758 70.8054 73.8674 70.9358 74.3894 71.1964C74.9114 71.4571 75.1724 71.8481 75.4334 72.239C75.6944 72.7603 75.825 73.2816 75.825 73.9333C75.825 75.1062 75.3029 76.0185 74.3894 76.6701C73.2148 77.3218 71.9098 77.5824 70.4742 77.5824Z" fill="black"/>
<path d="M77.1289 64.4204V61.5532H80.5221V64.4204H77.1289ZM77.1289 77.3227V65.9843H80.3916V77.1924H77.1289V77.3227Z" fill="black"/>
<path d="M86.9181 77.5834C85.4825 77.5834 84.308 77.0621 83.3944 76.0195C82.4809 74.9769 82.0894 73.5433 82.0894 71.7187C82.0894 70.0245 82.4809 68.5909 83.3944 67.4179C84.308 66.245 85.4825 65.7237 86.9181 65.7237C88.3536 65.7237 89.3977 66.3753 90.3112 67.5482C90.3112 66.636 90.1807 65.7237 90.1807 64.9417V61.5532H93.4434V77.1924H90.3112V75.4982C89.7892 76.9318 88.6147 77.5834 86.9181 77.5834ZM87.8316 74.9769C88.6147 74.9769 89.2672 74.7162 89.6587 74.0646C90.1807 73.4129 90.3112 72.631 90.3112 71.7187C90.3112 70.6761 90.0502 69.8941 89.6587 69.2425C89.2672 68.5909 88.6147 68.3302 87.8316 68.3302C87.0486 68.3302 86.5266 68.5909 86.1351 69.2425C85.7435 69.8941 85.4825 70.6761 85.4825 71.7187C85.4825 72.7613 85.7435 73.5433 86.1351 74.1949C86.5266 74.7162 87.0486 74.9769 87.8316 74.9769Z" fill="black"/>
<path d="M102.969 77.3229C102.708 77.0622 102.708 76.5409 102.578 75.8893C101.795 77.0622 100.62 77.5836 99.1847 77.5836C98.0102 77.5836 97.0966 77.3229 96.4441 76.6713C95.7915 76.0196 95.4 75.2377 95.4 74.1951C95.4 73.0221 95.7916 72.2402 96.5746 71.7189C97.3576 71.1976 98.4017 70.9369 99.8373 70.6762C100.881 70.5459 101.664 70.4156 102.056 70.1549C102.447 69.8943 102.708 69.6336 102.708 69.2427C102.708 68.8517 102.578 68.4607 102.317 68.2C102.056 67.9394 101.664 67.8091 101.012 67.8091C99.8373 67.8091 99.1847 68.3304 99.0542 69.2427H96.0526C96.0526 68.2 96.5746 67.2878 97.3576 66.6361C98.2712 65.8542 99.4457 65.5935 101.012 65.5935C102.447 65.5935 103.491 65.8542 104.275 66.2451C105.449 66.8968 105.971 68.0697 105.971 69.6336V75.368C105.971 76.2803 106.102 76.8016 106.363 76.9319V77.0622H102.969V77.3229ZM100.229 75.368C101.012 75.368 101.534 75.1074 102.056 74.7164C102.447 74.3254 102.708 73.8041 102.708 73.1524V71.7189C102.317 71.9795 101.664 72.1098 100.751 72.3705C99.9678 72.5008 99.4457 72.7615 99.0542 73.0221C98.6627 73.2828 98.5322 73.5434 98.5322 74.0647C98.5322 74.977 99.1847 75.368 100.229 75.368Z" fill="black"/>
<path d="M112.367 77.5834C110.931 77.5834 109.757 77.0621 108.843 76.0195C107.929 74.9769 107.538 73.5433 107.538 71.7187C107.538 70.0245 107.929 68.5909 108.843 67.4179C109.757 66.245 110.931 65.7237 112.367 65.7237C113.802 65.7237 114.846 66.3753 115.76 67.5482C115.76 66.636 115.629 65.7237 115.629 64.9417V61.5532H118.892V77.1924H115.76V75.4982C115.107 76.9318 113.933 77.5834 112.367 77.5834ZM113.28 74.9769C114.063 74.9769 114.716 74.7162 115.107 74.0646C115.629 73.4129 115.76 72.631 115.76 71.7187C115.76 70.6761 115.499 69.8941 115.107 69.2425C114.716 68.5909 114.063 68.3302 113.28 68.3302C112.497 68.3302 111.975 68.5909 111.584 69.2425C111.192 69.8941 110.931 70.6761 110.931 71.7187C110.931 72.7613 111.192 73.5433 111.584 74.1949C111.845 74.7162 112.497 74.9769 113.28 74.9769Z" fill="black"/>
<path d="M0.261353 99.2175V83.5783H3.91552L8.09173 90.3553C8.35275 90.7463 8.74426 91.3979 9.00527 92.0496C9.39679 92.7012 9.6578 93.3528 9.91881 93.7438L10.3103 94.3954C10.1798 92.5709 10.1798 91.0069 10.1798 89.834V83.448H13.573V99.0872H9.91881L5.87312 92.3102C5.61211 91.7889 5.22059 91.2676 4.95958 90.616C4.56806 89.9643 4.30704 89.3127 4.04603 88.7914L3.65452 88.1398C3.78502 89.9643 3.78502 91.5282 3.78502 92.7012V98.9569H0.261353V99.2175Z" fill="black"/>
<path d="M21.1436 99.6085C19.3165 99.6085 17.8809 99.0872 16.8368 97.9142C15.7928 96.7413 15.1403 95.3077 15.1403 93.6134C15.1403 91.9192 15.6623 90.4856 16.8368 89.3127C17.8809 88.1397 19.3165 87.6184 21.1436 87.6184C22.8402 87.6184 24.2757 88.1397 25.4503 89.3127C26.4943 90.4856 27.1469 91.9192 27.1469 93.6134C27.1469 95.3077 26.6248 96.7413 25.4503 97.9142C24.2757 98.9568 22.8402 99.6085 21.1436 99.6085ZM21.1436 97.1323C21.9266 97.1323 22.5791 96.8716 23.1012 96.22C23.4927 95.5683 23.7537 94.656 23.7537 93.6134C23.7537 92.5708 23.4927 91.6585 23.1012 91.0069C22.7096 90.3553 22.0571 89.9643 21.1436 89.9643C20.3605 89.9643 19.708 90.2249 19.186 90.8766C18.7944 91.5282 18.5334 92.4405 18.5334 93.4831C18.5334 94.5257 18.7944 95.438 19.186 96.0896C19.708 96.8716 20.23 97.1323 21.1436 97.1323Z" fill="black"/>
<path d="M31.9748 88.0092V89.9641C32.6273 88.5305 33.6714 87.7485 35.107 87.7485C35.4985 87.7485 35.629 87.7485 35.7595 87.8789V90.746H35.629C35.368 90.746 35.107 90.746 34.9764 90.746C34.0629 90.746 33.2799 91.0067 32.7578 91.528C32.2358 92.0493 31.9748 92.9616 31.9748 94.0042V99.2173H28.7122V88.0092H31.9748V88.0092Z" fill="black"/>
<path d="M43.9816 99.6091C42.285 99.6091 41.241 98.9574 40.5884 97.6542V99.3484H37.4563V83.7092H40.719V87.0977C40.719 87.7494 40.719 88.5313 40.5884 89.7043C41.3715 88.401 42.546 87.8797 43.9816 87.8797C45.4172 87.8797 46.5917 88.401 47.5053 89.5739C48.4188 90.7469 48.8104 92.0501 48.8104 93.8747C48.8104 95.6993 48.4188 97.1329 47.5053 98.3058C46.7222 99.0878 45.5477 99.6091 43.9816 99.6091ZM43.1986 96.8722C43.9816 96.8722 44.5036 96.6116 44.8952 95.9599C45.2867 95.3083 45.5477 94.5263 45.5477 93.4837C45.5477 92.4411 45.2867 91.6592 44.8952 91.0075C44.5036 90.3559 43.8511 90.0952 43.1986 90.0952C42.4155 90.0952 41.763 90.3559 41.3715 91.0075C40.98 91.6592 40.719 92.4411 40.719 93.4837C40.719 94.5263 40.98 95.3083 41.3715 95.8296C41.763 96.6116 42.4155 96.8722 43.1986 96.8722Z" fill="black"/>
<path d="M55.8566 99.6085C54.0295 99.6085 52.5939 99.0872 51.5499 97.9142C50.5058 96.7413 49.9838 95.438 49.9838 93.6134C49.9838 91.9192 50.5058 90.4856 51.5499 89.3127C52.5939 88.1397 54.0295 87.6184 55.7261 87.6184C57.2921 87.6184 58.5972 88.1397 59.6413 89.052C60.9463 90.2249 61.4683 92.0495 61.4683 94.3954H53.2464C53.3769 95.3077 53.638 95.9593 54.16 96.3503C54.682 96.8716 55.204 97.0019 55.9871 97.0019C57.0311 97.0019 57.6837 96.6109 58.0752 95.9593H61.3379C61.0768 97.0019 60.4243 97.7839 59.5107 98.4355C58.4667 99.2175 57.2921 99.6085 55.8566 99.6085ZM55.7261 89.9643C54.2905 89.9643 53.5074 90.7462 53.2464 92.4405H58.0752C58.0752 91.6585 57.8142 91.0069 57.4227 90.6159C56.9006 90.2249 56.3786 89.9643 55.7261 89.9643Z" fill="black"/>
<path d="M66.2979 88.0092V89.9641C66.9505 88.5305 67.9945 87.7485 69.4301 87.7485C69.8216 87.7485 69.9521 87.7485 70.0826 87.8789V90.746H69.9521C69.6911 90.746 69.4301 90.746 69.2996 90.746C68.386 90.746 67.603 91.0067 67.081 91.528C66.5589 92.0493 66.2979 92.9616 66.2979 94.0042V99.2173H63.0353V88.0092H66.2979V88.0092Z" fill="black"/>
<path d="M71.2576 90.0942V88.009H72.9542V84.3599H76.2168V88.009H78.4354V90.0942H76.2168V95.6983C76.2168 96.0893 76.3473 96.3499 76.4778 96.4802C76.7388 96.6106 76.9998 96.7409 77.3914 96.7409C77.6524 96.7409 77.9134 96.7409 78.1744 96.7409H78.3049V99.2171C77.6524 99.3474 76.9999 99.3474 76.3473 99.3474C75.1728 99.3474 74.3897 99.0868 73.7372 98.6958C73.0847 98.3048 72.8236 97.5229 72.8236 96.3499V90.0942H71.2576Z" fill="black"/>
<path d="M88.4847 99.217L84.3085 83.5778H87.9627L89.5287 89.7032C89.6592 90.3548 89.9203 91.2671 90.0508 92.1794C90.1813 93.222 90.3118 94.004 90.4423 94.6556L90.5728 95.6982C90.9643 93.0917 91.3558 91.0065 91.6168 89.5729L93.0524 83.5778H96.4456L97.8811 89.5729C98.0116 90.2245 98.1421 91.0065 98.2726 92.0491C98.4032 93.0917 98.5337 94.004 98.6642 94.6556L98.7947 95.6982C99.0557 93.222 99.3167 91.1368 99.7082 89.5729L101.405 83.4475H105.059L100.752 99.0867H97.2286L95.6625 92.5704C95.532 92.0491 95.4015 91.2671 95.271 90.3548C95.1405 89.4425 95.01 88.6606 94.8795 88.1393L94.749 87.227C94.488 89.5729 94.0965 91.3974 93.8354 92.7007L92.2694 99.3474H88.4847V99.217Z" fill="black"/>
<path d="M106.363 86.4448V83.5776H109.756V86.4448H106.363ZM106.363 99.2168V88.0087H109.626V99.2168H106.363Z" fill="black"/>
<path d="M117.326 99.6085C115.499 99.6085 114.063 99.0872 113.019 97.9142C111.975 96.7413 111.453 95.438 111.453 93.6134C111.453 91.9192 111.975 90.4856 113.019 89.3127C114.063 88.1397 115.499 87.6184 117.195 87.6184C118.762 87.6184 120.067 88.1397 121.111 89.052C122.285 90.2249 122.938 92.0495 122.938 94.3954H114.716C114.846 95.3077 115.107 95.9593 115.629 96.3503C116.151 96.8716 116.673 97.0019 117.456 97.0019C118.501 97.0019 119.153 96.6109 119.545 95.9593H122.807C122.546 97.0019 121.894 97.7839 120.98 98.4355C119.806 99.2175 118.631 99.6085 117.326 99.6085ZM117.065 89.9643C115.629 89.9643 114.846 90.7462 114.585 92.4405H119.414C119.414 91.6585 119.153 91.0069 118.762 90.6159C118.37 90.2249 117.717 89.9643 117.065 89.9643Z" fill="black"/>
<path d="M127.635 88.0094V89.7036C128.288 88.4004 129.462 87.6184 131.159 87.6184C132.333 87.6184 133.377 88.0094 134.03 88.7913C134.683 89.5733 135.074 90.6159 135.074 91.7889V99.2175H131.811V92.4405C131.811 91.7889 131.681 91.2676 131.289 91.0069C131.028 90.6159 130.506 90.4856 129.854 90.4856C129.201 90.4856 128.679 90.7463 128.288 91.1372C127.896 91.6585 127.635 92.1798 127.635 92.9618V99.3478H124.372V88.1397H127.635V88.0094Z" fill="black"/>
<path d="M142.644 99.6085C140.816 99.6085 139.381 99.0872 138.337 97.9142C137.293 96.7413 136.771 95.438 136.771 93.6134C136.771 91.9192 137.293 90.4856 138.337 89.3127C139.381 88.1397 140.816 87.6184 142.513 87.6184C144.079 87.6184 145.384 88.1397 146.428 89.052C147.603 90.2249 148.255 92.0495 148.255 94.3954H140.033C140.164 95.3077 140.425 95.9593 140.947 96.3503C141.469 96.8716 141.991 97.0019 142.774 97.0019C143.818 97.0019 144.471 96.6109 144.862 95.9593H148.125C147.864 97.0019 147.211 97.7839 146.298 98.4355C145.254 99.2175 144.079 99.6085 142.644 99.6085ZM142.513 89.9643C141.077 89.9643 140.294 90.7462 140.033 92.4405H144.862C144.862 91.6585 144.601 91.0069 144.21 90.6159C143.688 90.2249 143.166 89.9643 142.513 89.9643Z" fill="black"/>
<path d="M153.085 88.0092V89.9641H153.215C153.868 88.5305 154.912 87.7485 156.347 87.7485C156.739 87.7485 156.87 87.7485 157 87.8789V90.746H156.87C156.609 90.746 156.347 90.746 156.217 90.746C155.303 90.746 154.52 91.0067 153.998 91.528C153.476 92.0493 153.215 92.9616 153.215 94.0042V99.2173H149.953V88.0092H153.085V88.0092Z" fill="black"/>
<path d="M118.675 49.6309H0V52.4092H118.675V49.6309Z" fill="#10B6BC"/>
<path d="M27.5687 48.3666L0 0.629883V32.4543L27.5687 48.3666Z" fill="#10B6BC"/>
<path d="M30.0969 47.6104L57.6656 0L30.0969 15.9122V47.6104Z" fill="#10B6BC"/>
<path d="M28.7073 15.9122L1.13867 0L28.7073 47.6104V15.9122Z" fill="#10B6BC"/>
<path d="M31.2358 48.3685L58.8045 32.4563V0.631836L31.2358 48.3685Z" fill="#10B6BC"/>
<path d="M87.7642 48.3675L60.1956 0.630859V32.4553L87.7642 48.3675Z" fill="#10B6BC"/>
<path d="M90.1665 47.6104L117.735 0L90.1665 15.9122V47.6104Z" fill="#10B6BC"/>
<path d="M88.9029 15.9122L61.3342 0L88.9029 47.6104V15.9122Z" fill="#10B6BC"/>
<path d="M91.4313 48.3675L119 32.4553V0.630859L91.4313 48.3675Z" fill="#10B6BC"/>
</svg>
